<svg width="1673" height="2453" viewBox="0 0 1673 2453" fill="none" xmlns="http://www.w3.org/2000/svg">
<path d="M267.75 860.44C287.72 907.66 316.31 950.07 352.72 986.47C389.12 1022.88 431.53 1051.46 478.75 1071.44C527.66 1092.13 579.6 1102.62 633.11 1102.62C665.11 1102.62 696.96 1098.79 727.78 1091.24C738.65 1088.57 749.42 1085.44 760.03 1081.86C757.05 1102.43 754.34 1123.56 751.95 1144.92C749.15 1170.12 746.71 1196.7 744.69 1223.95C742.93 1247.76 741.5 1272.67 740.44 1298.01C739.5 1320.5 738.88 1342.87 738.58 1364.49C738.47 1372.28 735.21 1376.9 725.93 1388.11C719.33 1396.08 710.45 1406.81 705.64 1420.88C698.92 1424.98 689.59 1430.24 683.16 1433.86C674.76 1438.59 666.82 1443.06 660.45 1447.02C656.04 1449.76 652.69 1452.07 649.91 1454.28C634.28 1466.72 632.08 1481.49 632.27 1489.7H997.06L995.72 1482.11C993.8 1471.19 988.44 1463.4 975.88 1447.37C971.73 1441.43 965.84 1436.53 958.23 1432.72C956.05 1431.63 953.65 1430.54 951.12 1429.39C950.77 1429.23 950.37 1429.05 949.93 1428.85C948.21 1426.55 946.43 1424.39 944.71 1422.3C943.44 1420.76 941.55 1418.46 940.31 1416.79C937.75 1404.99 933.72 1395.91 930.41 1388.46C926.25 1379.1 922.67 1371.02 920.5 1354.2V1354.13C917.94 1334.63 915.56 1314.05 913.42 1292.95C911.03 1269.46 909.05 1246.4 907.54 1224.39C905.79 1199.22 904.53 1174.52 903.77 1150.99C903.39 1139.1 903.14 1127.22 903 1115.41C942.24 1127.59 983.08 1133.74 1025.03 1133.74C1080.65 1133.74 1134.62 1122.84 1185.45 1101.34C1234.53 1080.58 1278.6 1050.87 1316.43 1013.04C1354.26 975.21 1383.97 931.14 1404.73 882.06C1426.23 831.23 1437.13 777.25 1437.13 721.64C1437.13 643.04 1415.24 567.49 1373.6 501.71C1386.68 469.67 1393.51 435.04 1393.51 400.26C1393.51 365.48 1386.42 329 1372.43 295.94C1358.93 264.02 1339.62 235.37 1315.02 210.77C1290.42 186.17 1261.77 166.86 1229.85 153.36C1198.71 140.19 1165.77 133.13 1131.83 132.36C1055.92 48 948.63 0 834.48 0C765.02 0 696.57 18.09 636.54 52.3C584.37 82.03 539.29 123.43 505.13 172.75C444.05 180.15 387.65 208.21 344.53 253.06C296.31 303.21 269.76 369.16 269.76 438.75C269.76 466.8 274.05 494.26 282.53 520.65C252.41 577.54 236.58 641.24 236.58 706.08C236.58 759.6 247.07 811.53 267.76 860.44H267.75Z" fill="white"/>
<path d="M803.5 2194.13L785.59 2028.15C781.83 1993.31 760.76 1930 713.73 1866.23C652.61 1783.34 565.74 1721.22 455.53 1681.62L454.82 1681.36L454.12 1681.07C387.21 1653.55 328.13 1617.69 278.53 1574.47C235.46 1536.95 198.58 1493.04 168.91 1443.96C115.04 1354.86 93.9899 1265.61 81.6599 1197.81C59.4899 1075.9 12.3999 959.84 11.9299 958.69L11.3299 957.23L10.8699 955.72C-2.68006 910.91 -2.31006 882.29 12.0699 862.91C21.0799 850.77 35.1899 843.8 50.7799 843.8C66.3699 843.8 79.2999 850.1 88.0099 855.39C94.0499 859.06 105.18 866.74 111.92 877.03C112.57 877.95 114.75 880.44 116.5 882.45C130.54 898.55 159.74 932.05 196.63 1022.77C215.43 1068.98 235.33 1116.05 258.59 1161.63C253.94 1113.84 259.2 1084.39 275.61 1066.25C285.21 1055.64 298.29 1049.8 312.45 1049.8C328.38 1049.8 344.58 1057.02 360.62 1071.26C371.85 1081.23 382.59 1094.24 391.68 1108.89C413.22 1143.6 457.67 1169.39 561.53 1207.44C666.54 1245.87 733.59 1281.57 736.39 1283.07L737.81 1283.83L739.15 1284.72C777.42 1310.2 810.12 1343.21 836.85 1383.24C863.57 1343.21 896.28 1310.2 934.55 1284.72L935.89 1283.83L937.31 1283.07C940.11 1281.57 1007.16 1245.87 1112.18 1207.43C1216.03 1169.38 1260.48 1143.59 1282.02 1108.88C1291.11 1094.23 1301.85 1081.22 1313.08 1071.25C1329.12 1057.01 1345.32 1049.79 1361.25 1049.79C1375.41 1049.79 1388.49 1055.63 1398.09 1066.24C1414.5 1084.38 1419.77 1113.83 1415.11 1161.62C1438.37 1116.04 1458.28 1068.96 1477.07 1022.76C1513.96 932.04 1543.17 898.54 1557.21 882.44C1558.97 880.43 1561.15 877.92 1561.79 877.01C1568.53 866.73 1579.65 859.05 1585.69 855.38C1594.4 850.09 1607.93 843.79 1622.92 843.79C1637.91 843.79 1652.62 850.75 1661.63 862.9C1676.01 882.28 1676.39 910.9 1662.84 955.71L1662.38 957.22L1661.78 958.68C1661.31 959.83 1614.17 1076.17 1592.05 1197.81C1579.73 1265.6 1558.67 1354.85 1504.8 1443.95C1475.13 1493.02 1438.25 1536.93 1395.18 1574.46C1345.58 1617.68 1286.5 1653.54 1219.59 1681.06L1218.89 1681.35L1218.18 1681.61C1107.97 1721.22 1021.1 1783.33 959.98 1866.22C912.96 1929.99 891.88 1993.3 888.12 2028.14L870.21 2194.12L836.84 2452.38L803.48 2194.12L803.5 2194.13ZM378.87 1334.39C432.71 1387.63 495.09 1398.67 528.05 1400.46C512.31 1393.19 493.15 1385.56 474.57 1378.16C450.36 1368.52 425.32 1358.54 404.81 1348.27C395.81 1343.91 387.16 1339.29 378.88 1334.39H378.87ZM1268.93 1348.26C1248.42 1358.53 1223.38 1368.51 1199.17 1378.15C1180.59 1385.55 1161.43 1393.18 1145.69 1400.45C1178.65 1398.66 1241.04 1387.62 1294.87 1334.38C1286.59 1339.27 1277.94 1343.9 1268.94 1348.26H1268.93Z" fill="white"/>
<path d="M1589.86 895.44C1581.33 908.52 1551.34 929.26 1508.17 1035.41C1464.99 1141.57 1413.24 1260.79 1322.26 1354.41C1231.28 1447.99 1117.61 1433.49 1117.61 1433.49C1014.98 1396.3 1175.31 1357.7 1254.13 1318.14C1381.64 1256.58 1381.61 1159.55 1381.61 1159.55C1393.01 1046.02 1338.9 1080.89 1310.55 1126.58C1282.21 1172.24 1227.71 1200.85 1123.73 1238.95C1019.72 1277.02 953.16 1312.66 953.16 1312.66C898.85 1348.82 861.9 1398.44 836.86 1451.42C811.82 1398.44 774.87 1348.82 720.56 1312.66C720.56 1312.66 654 1277.02 549.99 1238.95C446.01 1200.85 391.51 1172.24 363.17 1126.58C334.82 1080.89 280.72 1046.02 292.11 1159.55C292.11 1159.55 292.08 1256.58 419.59 1318.14C498.41 1357.7 658.74 1396.3 556.11 1433.49C556.11 1433.49 442.43 1447.99 351.46 1354.41C260.48 1260.79 208.73 1141.57 165.55 1035.41C122.38 929.25 92.3999 908.52 83.8599 895.44C75.3099 882.34 12.0799 843.79 42.9899 946C42.9899 946 91.6099 1065.04 114.67 1191.81C137.71 1318.58 195.42 1538.4 466.87 1650.03C735.55 1746.6 811.11 1952.04 818.94 2024.55C823.57 2067.45 831.3 2139.13 836.85 2190.53C842.4 2139.13 850.13 2067.45 854.76 2024.55C862.58 1952.04 938.14 1746.6 1206.83 1650.03C1478.29 1538.4 1535.99 1318.58 1559.03 1191.81C1582.09 1065.04 1630.71 946 1630.71 946C1661.62 843.79 1598.38 882.34 1589.84 895.44H1589.86Z" fill="#231F20"/>
<path d="M1025.06 1093.48C1230.42 1093.48 1396.9 927.002 1396.9 721.64C1396.9 516.279 1230.42 349.8 1025.06 349.8C819.699 349.8 653.22 516.279 653.22 721.64C653.22 927.002 819.699 1093.48 1025.06 1093.48Z" fill="#FDB913"/>
<path d="M1286.58 561.274C1375.5 472.351 1375.5 328.18 1286.58 239.257C1197.65 150.335 1053.48 150.335 964.559 239.257C875.637 328.18 875.637 472.351 964.559 561.274C1053.48 650.196 1197.65 650.196 1286.58 561.274Z" fill="#FFF200"/>
<path d="M698.737 599.756C787.659 510.834 787.659 366.662 698.737 277.739C609.814 188.817 465.643 188.817 376.72 277.739C287.798 366.662 287.798 510.834 376.72 599.756C465.643 688.678 609.814 688.678 698.737 599.756Z" fill="#FFF572"/>
<path d="M834.48 760.26C1033.3 760.26 1194.48 599.083 1194.48 400.26C1194.48 201.438 1033.3 40.26 834.48 40.26C635.658 40.26 474.48 201.438 474.48 400.26C474.48 599.083 635.658 760.26 834.48 760.26Z" fill="#F36E21"/>
<path d="M633.11 1062.34C829.873 1062.34 989.38 902.833 989.38 706.07C989.38 509.308 829.873 349.8 633.11 349.8C436.348 349.8 276.84 509.308 276.84 706.07C276.84 902.833 436.348 1062.34 633.11 1062.34Z" fill="#ED1C24"/>
<path d="M1116.85 736.07C1116.41 736.16 1115.23 736.39 1113.39 736.75C1112.8 736.88 1112.13 737 1111.4 737.15C1110.67 737.32 1109.86 737.51 1109.01 737.69C1108.15 737.9 1107.23 738.11 1106.24 738.34C1105.27 738.58 1104.23 738.88 1103.14 739.16C1098.74 740.31 1093.49 741.99 1087.55 744.11C1081.62 746.24 1075.02 748.96 1068 752.25C1065.44 753.44 1062.8 754.72 1060.15 756.06H1060.14C1048.14 762.1 1035.18 769.68 1021.97 778.45C1005.8 789.17 989.3 801.69 973.38 814.87C965.41 821.47 957.6 828.25 950.04 835.07C942.48 841.87 935.13 848.7 928.16 855.43C914.19 868.87 901.55 881.83 890.97 893.16C884.54 900.02 878.87 906.27 874.08 911.64C873.59 915.25 873.11 918.87 872.64 922.53C866.57 970.9 863.32 1022.84 862.75 1074.78C862.46 1100.75 862.75 1126.72 863.56 1152.27C864.38 1177.81 865.72 1202.92 867.4 1227.19C869.07 1251.45 871.13 1274.88 873.39 1297.04C875.64 1319.2 878.07 1340.11 880.59 1359.36C885.56 1397.86 897.67 1406.03 901.53 1428.09C903.46 1439.12 919.57 1452.54 920.72 1458.3C921.28 1461.13 942.49 1468.92 942.78 1470.38C942.79 1470.46 955.62 1486.43 956.09 1489.09C943.85 1489.69 686.25 1490.22 672.55 1488.7C672.3 1483.03 742.73 1450.29 742.48 1442.18C741.76 1418.31 778.31 1405.56 778.87 1365.03C779.15 1344.77 779.73 1322.83 780.7 1299.66C781.67 1276.5 783.01 1252.1 784.87 1226.89C786.74 1201.69 789.06 1175.68 791.99 1149.34C794.94 1122.98 798.45 1096.26 802.59 1069.65C802.85 1068.02 803.11 1066.41 803.36 1064.79C801.33 1052.31 798.7 1037.33 795.39 1020.47C790.49 995.31 784.09 966.03 776.09 934.96C772.08 919.42 767.68 903.39 762.87 887.25C758.04 871.1 752.82 854.77 747.23 838.59C736.05 806.2 723.19 774.39 709.32 745.38C702.37 730.88 695.19 717.1 687.9 704.28C680.6 691.45 673.21 679.6 665.96 668.94C665.21 667.84 664.47 666.75 663.73 665.69C657.27 656.33 650.95 647.96 645.06 640.6C641.72 636.57 638.64 632.73 635.58 629.34C634.08 627.65 632.67 625.98 631.26 624.44C629.84 622.91 628.49 621.45 627.2 620.07C624.66 617.27 622.23 614.93 620.17 612.82C619.15 611.77 618.2 610.79 617.3 609.93C616.4 609.08 615.58 608.29 614.84 607.61C612.27 605.17 610.75 603.73 610.4 603.4C610.75 603.68 612.41 604.97 615.22 607.19C616.02 607.81 616.9 608.51 617.9 609.3C618.87 610.07 619.91 610.97 621.04 611.92C623.28 613.82 625.93 615.95 628.72 618.52C630.14 619.79 631.63 621.14 633.2 622.54C634.76 623.95 636.32 625.49 637.99 627.06C641.36 630.18 644.82 633.75 648.57 637.52C654.83 644.03 661.58 651.43 668.56 659.74C669.8 661.21 671.04 662.7 672.3 664.21C680.62 674.34 689.23 685.65 697.82 698.01C703.52 706.19 709.22 714.83 714.87 723.82C716.1 715.85 717.71 706.08 719.76 695.02C722.6 679.62 726.25 661.71 730.81 642.68C733.08 633.17 735.58 623.38 738.31 613.48C741.04 603.57 743.97 593.55 747.16 583.61C753.35 564.21 760.36 545.08 768.03 527.53C768.21 527.07 768.42 526.63 768.61 526.19C776.48 508.28 785.03 492.11 793.41 478.89C797.6 472.28 801.69 466.4 805.56 461.37C809.44 456.33 812.97 452.08 816.06 448.74C816.83 447.9 817.54 447.09 818.24 446.36C818.94 445.63 819.61 444.95 820.22 444.31C820.84 443.67 821.41 443.09 821.93 442.56C822.47 442.04 822.96 441.57 823.41 441.14C824.75 439.86 825.6 439.03 825.94 438.72C825.62 439.06 824.79 439.91 823.51 441.24C823.09 441.67 822.61 442.17 822.09 442.7C821.6 443.26 821.06 443.86 820.47 444.53C819.88 445.17 819.24 445.89 818.57 446.63C817.9 447.4 817.23 448.22 816.49 449.09C813.54 452.55 810.18 456.92 806.53 462.06C802.88 467.21 799.03 473.21 795.15 479.93C787.35 493.35 779.5 509.72 772.39 527.76C772.16 528.36 771.91 528.97 771.69 529.57C764.85 547.12 758.71 566.17 753.39 585.43C750.62 595.4 748.11 605.43 745.79 615.34C743.48 625.25 741.38 635.05 739.5 644.56C735.73 663.57 732.79 681.45 730.58 696.78C728.36 712.13 726.86 724.95 725.93 733.93C725.64 736.57 725.43 738.88 725.24 740.82C741.41 768.24 756.86 798.37 770.77 829.19C777.98 845.17 784.83 861.32 791.25 877.35C797.68 893.37 803.65 909.29 809.19 924.77C814.08 938.39 818.6 951.7 822.77 964.48C826.65 947.61 830.8 931.06 835.21 914.99C841.87 890.67 849.14 867.4 856.8 845.62C864.47 823.84 872.56 803.58 880.72 785.21C882.95 780.2 885.19 775.34 887.42 770.61C893.35 758.02 899.24 746.5 904.86 736.09C908.87 729 912.5 722.34 916.21 716.35C918.04 713.34 919.72 710.44 921.43 707.72C923.18 705.01 924.83 702.44 926.4 699.98C929.47 695.05 932.52 690.83 935.06 687.11C936.34 685.25 937.48 683.51 938.61 681.98C939.74 680.44 940.76 679.05 941.69 677.79C945.11 673.14 947.05 670.52 947.31 670.17C947.13 670.5 945.59 673.38 942.84 678.51C942.12 679.88 941.29 681.39 940.39 683.07C939.5 684.74 938.62 686.63 937.62 688.63C935.66 692.66 933.27 697.21 930.95 702.49C929.74 705.11 928.49 707.86 927.19 710.74C925.88 713.65 924.64 716.74 923.28 719.92C920.52 726.26 917.9 733.29 915.01 740.71C911.49 750.23 907.92 760.58 904.42 771.7C902.39 778.11 900.4 784.73 898.47 791.62C893.13 810.46 888.16 831.06 883.8 853.02C881.33 865.44 879.08 878.32 877.02 891.54C878.97 889.57 881.01 887.54 883.11 885.45C894.27 874.44 907.51 861.87 922.14 848.84C929.44 842.34 937.11 835.75 945.01 829.17C952.92 822.61 961.05 816.08 969.35 809.74C985.93 797.07 1003.07 785.1 1019.78 774.94C1033.63 766.48 1047.19 759.3 1059.63 753.64C1062.19 752.47 1064.72 751.36 1067.19 750.32C1074.4 747.29 1081.14 744.82 1087.19 742.92C1093.24 740.99 1098.58 739.54 1103.02 738.56C1104.14 738.31 1105.17 738.06 1106.17 737.85C1107.16 737.66 1108.09 737.47 1108.97 737.32C1109.84 737.15 1110.64 736.99 1111.37 736.85C1112.11 736.73 1112.78 736.64 1113.38 736.54C1115.23 736.26 1116.42 736.08 1116.86 736.01L1116.85 736.07Z" fill="#231F20"/>
</svg>
